<svg width="721" height="308" viewBox="0 0 721 308" fill="none" xmlns="http://www.w3.org/2000/svg">
<rect width="721" height="308" rx="4" fill="#091F5B" fill-opacity="0.05"/>
<path d="M32.91 34.3438V32.4545H44.1671V34.3438H39.6287V47H37.4412V34.3438H32.91ZM50.4973 47.2202C49.4746 47.2202 48.5821 46.9858 47.8198 46.517C47.0575 46.0483 46.4656 45.3925 46.0442 44.5497C45.6228 43.7069 45.4121 42.7221 45.4121 41.5952C45.4121 40.4635 45.6228 39.474 46.0442 38.6264C46.4656 37.7789 47.0575 37.1207 47.8198 36.652C48.5821 36.1832 49.4746 35.9489 50.4973 35.9489C51.5201 35.9489 52.4126 36.1832 53.1749 36.652C53.9372 37.1207 54.5291 37.7789 54.9505 38.6264C55.3719 39.474 55.5826 40.4635 55.5826 41.5952C55.5826 42.7221 55.3719 43.7069 54.9505 44.5497C54.5291 45.3925 53.9372 46.0483 53.1749 46.517C52.4126 46.9858 51.5201 47.2202 50.4973 47.2202ZM50.5044 45.4375C51.1673 45.4375 51.7166 45.2623 52.1522 44.9119C52.5878 44.5616 52.9097 44.0952 53.1181 43.5128C53.3311 42.9304 53.4377 42.2888 53.4377 41.5881C53.4377 40.892 53.3311 40.2528 53.1181 39.6705C52.9097 39.0833 52.5878 38.6122 52.1522 38.2571C51.7166 37.902 51.1673 37.7244 50.5044 37.7244C49.8368 37.7244 49.2828 37.902 48.8425 38.2571C48.4069 38.6122 48.0826 39.0833 47.8695 39.6705C47.6612 40.2528 47.557 40.892 47.557 41.5881C47.557 42.2888 47.6612 42.9304 47.8695 43.5128C48.0826 44.0952 48.4069 44.5616 48.8425 44.9119C49.2828 45.2623 49.8368 45.4375 50.5044 45.4375ZM64.0453 36.0909V37.7955H58.0865V36.0909H64.0453ZM59.6845 33.4773H61.8081V43.7969C61.8081 44.2088 61.8696 44.5189 61.9927 44.7273C62.1158 44.9309 62.2744 45.0705 62.4686 45.1463C62.6674 45.2173 62.8829 45.2528 63.1149 45.2528C63.2853 45.2528 63.4345 45.241 63.5623 45.2173C63.6902 45.1937 63.7896 45.1747 63.8606 45.1605L64.2441 46.9148C64.121 46.9621 63.9458 47.0095 63.7186 47.0568C63.4913 47.1089 63.2072 47.1373 62.8663 47.142C62.3076 47.1515 61.7868 47.0521 61.3038 46.8438C60.8208 46.6354 60.4302 46.3134 60.1319 45.8778C59.8336 45.4422 59.6845 44.8954 59.6845 44.2372V33.4773ZM70.5691 47.2415C69.8778 47.2415 69.2528 47.1136 68.6941 46.858C68.1354 46.5975 67.6926 46.2211 67.3659 45.7287C67.044 45.2363 66.883 44.6326 66.883 43.9176C66.883 43.3021 67.0014 42.7955 67.2381 42.3977C67.4748 42 67.7944 41.6851 68.1969 41.4531C68.5994 41.2211 69.0492 41.0459 69.5463 40.9276C70.0435 40.8092 70.5501 40.7192 71.0662 40.6577C71.7196 40.5819 72.2499 40.5204 72.6571 40.473C73.0643 40.4209 73.3603 40.3381 73.5449 40.2244C73.7296 40.1108 73.8219 39.9261 73.8219 39.6705V39.6207C73.8219 39.0005 73.6467 38.5199 73.2963 38.179C72.9507 37.8381 72.4346 37.6676 71.748 37.6676C71.0331 37.6676 70.4696 37.8262 70.0577 38.1435C69.6505 38.456 69.3688 38.804 69.2125 39.1875L67.2168 38.733C67.4535 38.0701 67.7992 37.535 68.2537 37.1278C68.713 36.7159 69.2409 36.4176 69.8375 36.233C70.4341 36.0436 71.0615 35.9489 71.7196 35.9489C72.1552 35.9489 72.6169 36.0009 73.1046 36.1051C73.597 36.2045 74.0563 36.3892 74.4824 36.6591C74.9133 36.929 75.266 37.3149 75.5407 37.8168C75.8153 38.3139 75.9526 38.9602 75.9526 39.7557V47H73.8787V45.5085H73.7935C73.6562 45.7831 73.4502 46.053 73.1756 46.3182C72.901 46.5833 72.5482 46.8035 72.1174 46.9787C71.6865 47.1539 71.1704 47.2415 70.5691 47.2415ZM71.0307 45.5369C71.6178 45.5369 72.1197 45.4209 72.5364 45.1889C72.9578 44.9569 73.2774 44.6539 73.4952 44.2798C73.7177 43.901 73.829 43.4962 73.829 43.0653V41.6591C73.7533 41.7348 73.6065 41.8059 73.3887 41.8722C73.1756 41.9337 72.9318 41.9882 72.6571 42.0355C72.3825 42.0781 72.115 42.1184 71.8546 42.1562C71.5942 42.1894 71.3764 42.2178 71.2012 42.2415C70.7892 42.2936 70.4128 42.3812 70.0719 42.5043C69.7357 42.6274 69.4659 42.8049 69.2623 43.0369C69.0634 43.2642 68.964 43.5672 68.964 43.946C68.964 44.4716 69.1581 44.8693 69.5463 45.1392C69.9346 45.4044 70.4294 45.5369 71.0307 45.5369ZM81.9047 32.4545V47H79.7811V32.4545H81.9047ZM92.225 47V32.4545H101.344V34.3438H94.4196V38.7756H100.868V40.6577H94.4196V45.1108H101.43V47H92.225ZM108.28 47.2415C107.589 47.2415 106.964 47.1136 106.405 46.858C105.846 46.5975 105.404 46.2211 105.077 45.7287C104.755 45.2363 104.594 44.6326 104.594 43.9176C104.594 43.3021 104.712 42.7955 104.949 42.3977C105.186 42 105.505 41.6851 105.908 41.4531C106.31 41.2211 106.76 41.0459 107.257 40.9276C107.754 40.8092 108.261 40.7192 108.777 40.6577C109.431 40.5819 109.961 40.5204 110.368 40.473C110.775 40.4209 111.071 40.3381 111.256 40.2244C111.441 40.1108 111.533 39.9261 111.533 39.6705V39.6207C111.533 39.0005 111.358 38.5199 111.007 38.179C110.662 37.8381 110.146 37.6676 109.459 37.6676C108.744 37.6676 108.181 37.8262 107.769 38.1435C107.361 38.456 107.08 38.804 106.923 39.1875L104.928 38.733C105.164 38.0701 105.51 37.535 105.965 37.1278C106.424 36.7159 106.952 36.4176 107.548 36.233C108.145 36.0436 108.772 35.9489 109.431 35.9489C109.866 35.9489 110.328 36.0009 110.816 36.1051C111.308 36.2045 111.767 36.3892 112.193 36.6591C112.624 36.929 112.977 37.3149 113.252 37.8168C113.526 38.3139 113.664 38.9602 113.664 39.7557V47H111.59V45.5085H111.504C111.367 45.7831 111.161 46.053 110.887 46.3182C110.612 46.5833 110.259 46.8035 109.828 46.9787C109.397 47.1539 108.881 47.2415 108.28 47.2415ZM108.742 45.5369C109.329 45.5369 109.831 45.4209 110.247 45.1889C110.669 44.9569 110.988 44.6539 111.206 44.2798C111.429 43.901 111.54 43.4962 111.54 43.0653V41.6591C111.464 41.7348 111.317 41.8059 111.1 41.8722C110.887 41.9337 110.643 41.9882 110.368 42.0355C110.093 42.0781 109.826 42.1184 109.566 42.1562C109.305 42.1894 109.087 42.2178 108.912 42.2415C108.5 42.2936 108.124 42.3812 107.783 42.5043C107.447 42.6274 107.177 42.8049 106.973 43.0369C106.774 43.2642 106.675 43.5672 106.675 43.946C106.675 44.4716 106.869 44.8693 107.257 45.1392C107.646 45.4044 108.14 45.5369 108.742 45.5369ZM117.492 47V36.0909H119.545V37.8239H119.658C119.857 37.2367 120.207 36.7751 120.709 36.4389C121.216 36.098 121.789 35.9276 122.428 35.9276C122.561 35.9276 122.717 35.9323 122.897 35.9418C123.081 35.9512 123.226 35.9631 123.33 35.9773V38.0085C123.245 37.9848 123.093 37.9588 122.876 37.9304C122.658 37.8973 122.44 37.8807 122.222 37.8807C121.72 37.8807 121.273 37.9872 120.88 38.2003C120.492 38.4086 120.184 38.6998 119.956 39.0739C119.729 39.4432 119.616 39.8646 119.616 40.3381V47H117.492ZM128.291 40.5227V47H126.168V36.0909H128.206V37.8665H128.341C128.592 37.2888 128.985 36.8248 129.52 36.4744C130.06 36.1241 130.739 35.9489 131.558 35.9489C132.302 35.9489 132.953 36.1051 133.512 36.4176C134.07 36.7254 134.503 37.1847 134.811 37.7955C135.119 38.4062 135.273 39.1615 135.273 40.0611V47H133.149V40.3168C133.149 39.526 132.943 38.9081 132.531 38.4631C132.119 38.0133 131.554 37.7884 130.834 37.7884C130.342 37.7884 129.904 37.8949 129.52 38.108C129.141 38.321 128.841 38.6335 128.618 39.0455C128.4 39.4527 128.291 39.9451 128.291 40.5227ZM139.121 47V36.0909H141.244V47H139.121ZM140.193 34.4077C139.824 34.4077 139.507 34.2846 139.242 34.0384C138.981 33.7874 138.851 33.4891 138.851 33.1435C138.851 32.7931 138.981 32.4948 139.242 32.2486C139.507 31.9976 139.824 31.8722 140.193 31.8722C140.563 31.8722 140.878 31.9976 141.138 32.2486C141.403 32.4948 141.536 32.7931 141.536 33.1435C141.536 33.4891 141.403 33.7874 141.138 34.0384C140.878 34.2846 140.563 34.4077 140.193 34.4077ZM147.225 40.5227V47H145.101V36.0909H147.14V37.8665H147.275C147.526 37.2888 147.919 36.8248 148.454 36.4744C148.993 36.1241 149.673 35.9489 150.492 35.9489C151.235 35.9489 151.886 36.1051 152.445 36.4176C153.004 36.7254 153.437 37.1847 153.745 37.7955C154.053 38.4062 154.206 39.1615 154.206 40.0611V47H152.083V40.3168C152.083 39.526 151.877 38.9081 151.465 38.4631C151.053 38.0133 150.487 37.7884 149.768 37.7884C149.275 37.7884 148.837 37.8949 148.454 38.108C148.075 38.321 147.774 38.6335 147.552 39.0455C147.334 39.4527 147.225 39.9451 147.225 40.5227ZM162.628 51.3182C161.762 51.3182 161.016 51.2045 160.391 50.9773C159.771 50.75 159.264 50.4493 158.871 50.0753C158.478 49.7012 158.185 49.2917 157.991 48.8466L159.816 48.0938C159.944 48.3021 160.114 48.5223 160.327 48.7543C160.545 48.991 160.839 49.1922 161.208 49.358C161.582 49.5237 162.063 49.6065 162.65 49.6065C163.455 49.6065 164.12 49.41 164.645 49.017C165.171 48.6288 165.434 48.0085 165.434 47.1562V45.0114H165.299C165.171 45.2434 164.986 45.5014 164.745 45.7855C164.508 46.0696 164.181 46.3158 163.765 46.5241C163.348 46.7325 162.806 46.8366 162.138 46.8366C161.277 46.8366 160.5 46.6354 159.809 46.233C159.122 45.8258 158.578 45.2268 158.175 44.4361C157.778 43.6406 157.579 42.6629 157.579 41.5028C157.579 40.3428 157.775 39.3485 158.168 38.5199C158.566 37.6913 159.11 37.0568 159.802 36.6165C160.493 36.1714 161.277 35.9489 162.153 35.9489C162.83 35.9489 163.376 36.0625 163.793 36.2898C164.21 36.5123 164.534 36.7727 164.766 37.071C165.003 37.3693 165.185 37.6321 165.313 37.8594H165.469V36.0909H167.55V47.2415C167.55 48.179 167.332 48.9484 166.897 49.5497C166.461 50.151 165.872 50.5961 165.128 50.8849C164.39 51.1738 163.556 51.3182 162.628 51.3182ZM162.607 45.0753C163.218 45.0753 163.734 44.9332 164.155 44.6491C164.581 44.3603 164.903 43.9484 165.121 43.4134C165.344 42.8736 165.455 42.2273 165.455 41.4744C165.455 40.7405 165.346 40.0942 165.128 39.5355C164.911 38.9768 164.591 38.5412 164.17 38.2287C163.748 37.9115 163.227 37.7528 162.607 37.7528C161.968 37.7528 161.435 37.9186 161.009 38.25C160.583 38.5767 160.261 39.0218 160.043 39.5852C159.83 40.1487 159.724 40.7784 159.724 41.4744C159.724 42.1894 159.832 42.8168 160.05 43.3565C160.268 43.8963 160.59 44.3177 161.016 44.6207C161.447 44.9238 161.977 45.0753 162.607 45.0753Z" fill="black"/>
<path d="M36.2666 82.7427V89H34.9722V84.2466L33.2749 84.6924V83.6719L36.1216 82.7427H36.2666ZM44.2974 85.3208V86.4219C44.2974 86.8766 44.2401 87.2723 44.1255 87.6089C44.0145 87.9419 43.8551 88.2176 43.6475 88.436C43.4434 88.6545 43.1963 88.8174 42.9062 88.9248C42.6198 89.0322 42.3011 89.0859 41.9502 89.0859C41.5993 89.0859 41.2788 89.0322 40.9888 88.9248C40.7023 88.8174 40.4552 88.6545 40.2476 88.436C40.0399 88.2176 39.8787 87.9419 39.7642 87.6089C39.6496 87.2723 39.5923 86.8766 39.5923 86.4219V85.3208C39.5923 84.866 39.6478 84.4722 39.7588 84.1392C39.8734 83.8062 40.0345 83.5304 40.2422 83.312C40.4499 83.09 40.6969 82.9253 40.9834 82.8179C41.2699 82.7104 41.5885 82.6567 41.9395 82.6567C42.2904 82.6567 42.6108 82.7104 42.9009 82.8179C43.1909 82.9253 43.4398 83.09 43.6475 83.312C43.8551 83.5304 44.0145 83.8062 44.1255 84.1392C44.2401 84.4722 44.2974 84.866 44.2974 85.3208ZM42.9976 86.5239V85.208C42.9976 84.9466 42.9743 84.721 42.9277 84.5312C42.8812 84.3379 42.8132 84.1785 42.7236 84.0532C42.6341 83.9279 42.5231 83.8366 42.3906 83.7793C42.2617 83.7184 42.1113 83.688 41.9395 83.688C41.7747 83.688 41.6261 83.7184 41.4937 83.7793C41.3647 83.8366 41.2555 83.9279 41.166 84.0532C41.0765 84.1785 41.0085 84.3379 40.9619 84.5312C40.9154 84.721 40.8921 84.9466 40.8921 85.208V86.5239C40.8921 86.7889 40.9154 87.0181 40.9619 87.2114C41.0085 87.4048 41.0765 87.5641 41.166 87.6895C41.2591 87.8148 41.3719 87.9079 41.5044 87.9688C41.6369 88.0296 41.7855 88.0601 41.9502 88.0601C42.1185 88.0601 42.2671 88.0296 42.396 87.9688C42.5285 87.9079 42.6395 87.8148 42.729 87.6895C42.8185 87.5641 42.8848 87.4048 42.9277 87.2114C42.9743 87.0181 42.9976 86.7889 42.9976 86.5239ZM50.9585 85.3208V86.4219C50.9585 86.8766 50.9012 87.2723 50.7866 87.6089C50.6756 87.9419 50.5163 88.2176 50.3086 88.436C50.1045 88.6545 49.8574 88.8174 49.5674 88.9248C49.2809 89.0322 48.9622 89.0859 48.6113 89.0859C48.2604 89.0859 47.9399 89.0322 47.6499 88.9248C47.3634 88.8174 47.1164 88.6545 46.9087 88.436C46.701 88.2176 46.5399 87.9419 46.4253 87.6089C46.3107 87.2723 46.2534 86.8766 46.2534 86.4219V85.3208C46.2534 84.866 46.3089 84.4722 46.4199 84.1392C46.5345 83.8062 46.6956 83.5304 46.9033 83.312C47.111 83.09 47.3581 82.9253 47.6445 82.8179C47.931 82.7104 48.2497 82.6567 48.6006 82.6567C48.9515 82.6567 49.272 82.7104 49.562 82.8179C49.8521 82.9253 50.1009 83.09 50.3086 83.312C50.5163 83.5304 50.6756 83.8062 50.7866 84.1392C50.9012 84.4722 50.9585 84.866 50.9585 85.3208ZM49.6587 86.5239V85.208C49.6587 84.9466 49.6354 84.721 49.5889 84.5312C49.5423 84.3379 49.4743 84.1785 49.3848 84.0532C49.2952 83.9279 49.1842 83.8366 49.0518 83.7793C48.9229 83.7184 48.7725 83.688 48.6006 83.688C48.4359 83.688 48.2873 83.7184 48.1548 83.7793C48.0259 83.8366 47.9167 83.9279 47.8271 84.0532C47.7376 84.1785 47.6696 84.3379 47.623 84.5312C47.5765 84.721 47.5532 84.9466 47.5532 85.208V86.5239C47.5532 86.7889 47.5765 87.0181 47.623 87.2114C47.6696 87.4048 47.7376 87.5641 47.8271 87.6895C47.9202 87.8148 48.033 87.9079 48.1655 87.9688C48.298 88.0296 48.4466 88.0601 48.6113 88.0601C48.7796 88.0601 48.9282 88.0296 49.0571 87.9688C49.1896 87.9079 49.3006 87.8148 49.3901 87.6895C49.4797 87.5641 49.5459 87.4048 49.5889 87.2114C49.6354 87.0181 49.6587 86.7889 49.6587 86.5239ZM52.979 83.0972V82.6836C52.979 82.3864 53.0435 82.116 53.1724 81.8726C53.3013 81.6291 53.4893 81.4339 53.7363 81.2871C53.9834 81.1403 54.2806 81.0669 54.6279 81.0669C54.986 81.0669 55.2868 81.1403 55.5303 81.2871C55.7773 81.4339 55.9653 81.6291 56.0942 81.8726C56.2231 82.116 56.2876 82.3864 56.2876 82.6836V83.0972C56.2876 83.3872 56.2231 83.654 56.0942 83.8975C55.9689 84.141 55.7827 84.3361 55.5356 84.4829C55.2922 84.6297 54.9932 84.7031 54.6387 84.7031C54.2878 84.7031 53.987 84.6297 53.7363 84.4829C53.4893 84.3361 53.3013 84.141 53.1724 83.8975C53.0435 83.654 52.979 83.3872 52.979 83.0972ZM53.876 82.6836V83.0972C53.876 83.2404 53.9028 83.3765 53.9565 83.5054C54.0138 83.6343 54.0998 83.7381 54.2144 83.8169C54.3289 83.8957 54.4704 83.9351 54.6387 83.9351C54.8105 83.9351 54.9502 83.8957 55.0576 83.8169C55.1686 83.7381 55.251 83.6343 55.3047 83.5054C55.3584 83.3765 55.3853 83.2404 55.3853 83.0972V82.6836C55.3853 82.5368 55.3566 82.3989 55.2993 82.27C55.2456 82.1375 55.1632 82.0319 55.0522 81.9531C54.9412 81.8743 54.7998 81.835 54.6279 81.835C54.4632 81.835 54.3236 81.8743 54.209 81.9531C54.098 82.0319 54.0138 82.1375 53.9565 82.27C53.9028 82.3989 53.876 82.5368 53.876 82.6836ZM56.7495 87.5015V87.0825C56.7495 86.7889 56.814 86.5203 56.9429 86.2769C57.0754 86.0334 57.2651 85.8382 57.5122 85.6914C57.7593 85.5446 58.0565 85.4712 58.4038 85.4712C58.7619 85.4712 59.0627 85.5446 59.3062 85.6914C59.5532 85.8382 59.7394 86.0334 59.8647 86.2769C59.9937 86.5203 60.0581 86.7889 60.0581 87.0825V87.5015C60.0581 87.7951 59.9937 88.0636 59.8647 88.3071C59.7394 88.5506 59.555 88.7458 59.3115 88.8926C59.068 89.0394 58.7708 89.1128 58.4199 89.1128C58.0654 89.1128 57.7629 89.0394 57.5122 88.8926C57.2651 88.7458 57.0754 88.5506 56.9429 88.3071C56.814 88.0636 56.7495 87.7951 56.7495 87.5015ZM57.6519 87.0825V87.5015C57.6519 87.6447 57.6805 87.7808 57.7378 87.9097C57.7987 88.0386 57.8864 88.1442 58.001 88.2266C58.1156 88.3053 58.2534 88.3447 58.4146 88.3447C58.5972 88.3447 58.744 88.3053 58.855 88.2266C58.966 88.1442 59.0448 88.0404 59.0913 87.915C59.1414 87.7861 59.1665 87.6483 59.1665 87.5015V87.0825C59.1665 86.9357 59.1379 86.7979 59.0806 86.6689C59.0269 86.54 58.9427 86.4362 58.8281 86.3574C58.7171 86.2786 58.5757 86.2393 58.4038 86.2393C58.2355 86.2393 58.0959 86.2786 57.9849 86.3574C57.8739 86.4362 57.7897 86.54 57.7324 86.6689C57.6787 86.7979 57.6519 86.9357 57.6519 87.0825ZM58.7261 82.2969L54.9072 88.4092L54.2466 88.0278L58.0654 81.9155L58.7261 82.2969Z" fill="#949494"/>
<path d="M78 85.5H66" stroke="#655B96"/>
<path d="M44.5205 120.743V121.457L41.7651 127H40.4009L43.1562 121.774H39.5898V120.743H44.5205ZM47.6958 124.175L46.6646 123.928L47.062 120.743H50.8755V121.79H48.1362L47.9482 123.133C48.0449 123.09 48.1917 123.04 48.3887 122.982C48.5892 122.925 48.8112 122.896 49.0547 122.896C49.5023 122.896 49.8854 122.979 50.2041 123.144C50.5228 123.305 50.7663 123.539 50.9346 123.847C51.1064 124.152 51.1924 124.52 51.1924 124.954C51.1924 125.33 51.1082 125.681 50.9399 126.006C50.7716 126.329 50.5138 126.59 50.1665 126.791C49.8228 126.987 49.3841 127.086 48.8506 127.086C48.4531 127.086 48.0789 127.016 47.728 126.876C47.3771 126.737 47.0889 126.533 46.8633 126.264C46.6413 125.996 46.5195 125.668 46.498 125.281H47.7764C47.805 125.55 47.916 125.747 48.1094 125.872C48.3027 125.997 48.5498 126.06 48.8506 126.06C49.1012 126.06 49.3035 126.012 49.4575 125.915C49.6115 125.815 49.7225 125.681 49.7905 125.512C49.8621 125.34 49.8979 125.147 49.8979 124.932C49.8979 124.717 49.8532 124.528 49.7637 124.363C49.6742 124.194 49.5417 124.064 49.3662 123.971C49.1908 123.878 48.9777 123.831 48.7271 123.831C48.4406 123.831 48.224 123.869 48.0771 123.944C47.9339 124.015 47.8068 124.092 47.6958 124.175ZM53.1484 121.097V120.684C53.1484 120.386 53.2129 120.116 53.3418 119.873C53.4707 119.629 53.6587 119.434 53.9058 119.287C54.1528 119.14 54.45 119.067 54.7974 119.067C55.1554 119.067 55.4562 119.14 55.6997 119.287C55.9468 119.434 56.1348 119.629 56.2637 119.873C56.3926 120.116 56.457 120.386 56.457 120.684V121.097C56.457 121.387 56.3926 121.654 56.2637 121.897C56.1383 122.141 55.9521 122.336 55.7051 122.483C55.4616 122.63 55.1626 122.703 54.8081 122.703C54.4572 122.703 54.1564 122.63 53.9058 122.483C53.6587 122.336 53.4707 122.141 53.3418 121.897C53.2129 121.654 53.1484 121.387 53.1484 121.097ZM54.0454 120.684V121.097C54.0454 121.24 54.0723 121.376 54.126 121.505C54.1833 121.634 54.2692 121.738 54.3838 121.817C54.4984 121.896 54.6398 121.935 54.8081 121.935C54.98 121.935 55.1196 121.896 55.2271 121.817C55.3381 121.738 55.4204 121.634 55.4741 121.505C55.5278 121.376 55.5547 121.24 55.5547 121.097V120.684C55.5547 120.537 55.526 120.399 55.4688 120.27C55.415 120.138 55.3327 120.032 55.2217 119.953C55.1107 119.874 54.9692 119.835 54.7974 119.835C54.6326 119.835 54.493 119.874 54.3784 119.953C54.2674 120.032 54.1833 120.138 54.126 120.27C54.0723 120.399 54.0454 120.537 54.0454 120.684ZM56.9189 125.501V125.083C56.9189 124.789 56.9834 124.52 57.1123 124.277C57.2448 124.033 57.4346 123.838 57.6816 123.691C57.9287 123.545 58.2259 123.471 58.5732 123.471C58.9313 123.471 59.2321 123.545 59.4756 123.691C59.7227 123.838 59.9089 124.033 60.0342 124.277C60.1631 124.52 60.2275 124.789 60.2275 125.083V125.501C60.2275 125.795 60.1631 126.064 60.0342 126.307C59.9089 126.551 59.7244 126.746 59.481 126.893C59.2375 127.039 58.9403 127.113 58.5894 127.113C58.2349 127.113 57.9323 127.039 57.6816 126.893C57.4346 126.746 57.2448 126.551 57.1123 126.307C56.9834 126.064 56.9189 125.795 56.9189 125.501ZM57.8213 125.083V125.501C57.8213 125.645 57.8499 125.781 57.9072 125.91C57.9681 126.039 58.0558 126.144 58.1704 126.227C58.285 126.305 58.4229 126.345 58.584 126.345C58.7666 126.345 58.9134 126.305 59.0244 126.227C59.1354 126.144 59.2142 126.04 59.2607 125.915C59.3109 125.786 59.3359 125.648 59.3359 125.501V125.083C59.3359 124.936 59.3073 124.798 59.25 124.669C59.1963 124.54 59.1121 124.436 58.9976 124.357C58.8866 124.279 58.7451 124.239 58.5732 124.239C58.4049 124.239 58.2653 124.279 58.1543 124.357C58.0433 124.436 57.9591 124.54 57.9019 124.669C57.8481 124.798 57.8213 124.936 57.8213 125.083ZM58.8955 120.297L55.0767 126.409L54.416 126.028L58.2349 119.916L58.8955 120.297Z" fill="#949494"/>
<path d="M78 123.5H66" stroke="#655B96"/>
<path d="M41.0347 162.175L40.0034 161.928L40.4009 158.743H44.2144V159.79H41.4751L41.2871 161.133C41.3838 161.09 41.5306 161.04 41.7275 160.982C41.9281 160.925 42.1501 160.896 42.3936 160.896C42.8411 160.896 43.2243 160.979 43.543 161.144C43.8617 161.305 44.1051 161.539 44.2734 161.847C44.4453 162.152 44.5312 162.52 44.5312 162.954C44.5312 163.33 44.4471 163.681 44.2788 164.006C44.1105 164.329 43.8527 164.59 43.5054 164.791C43.1616 164.987 42.723 165.086 42.1895 165.086C41.792 165.086 41.4178 165.016 41.0669 164.876C40.716 164.737 40.4277 164.533 40.2021 164.264C39.9801 163.996 39.8584 163.668 39.8369 163.281H41.1152C41.1439 163.55 41.2549 163.747 41.4482 163.872C41.6416 163.997 41.8887 164.06 42.1895 164.06C42.4401 164.06 42.6424 164.012 42.7964 163.915C42.9504 163.815 43.0614 163.681 43.1294 163.512C43.201 163.34 43.2368 163.147 43.2368 162.932C43.2368 162.717 43.1921 162.528 43.1025 162.363C43.013 162.194 42.8805 162.064 42.7051 161.971C42.5296 161.878 42.3166 161.831 42.0659 161.831C41.7795 161.831 41.5628 161.869 41.416 161.944C41.2728 162.015 41.1457 162.092 41.0347 162.175ZM51.1279 161.321V162.422C51.1279 162.877 51.0706 163.272 50.9561 163.609C50.8451 163.942 50.6857 164.218 50.478 164.436C50.2739 164.654 50.0269 164.817 49.7368 164.925C49.4504 165.032 49.1317 165.086 48.7808 165.086C48.4299 165.086 48.1094 165.032 47.8193 164.925C47.5329 164.817 47.2858 164.654 47.0781 164.436C46.8704 164.218 46.7093 163.942 46.5947 163.609C46.4801 163.272 46.4229 162.877 46.4229 162.422V161.321C46.4229 160.866 46.4784 160.472 46.5894 160.139C46.7039 159.806 46.8651 159.53 47.0728 159.312C47.2804 159.09 47.5275 158.925 47.814 158.818C48.1004 158.71 48.4191 158.657 48.77 158.657C49.1209 158.657 49.4414 158.71 49.7314 158.818C50.0215 158.925 50.2703 159.09 50.478 159.312C50.6857 159.53 50.8451 159.806 50.9561 160.139C51.0706 160.472 51.1279 160.866 51.1279 161.321ZM49.8281 162.524V161.208C49.8281 160.947 49.8049 160.721 49.7583 160.531C49.7118 160.338 49.6437 160.179 49.5542 160.053C49.4647 159.928 49.3537 159.837 49.2212 159.779C49.0923 159.718 48.9419 159.688 48.77 159.688C48.6053 159.688 48.4567 159.718 48.3242 159.779C48.1953 159.837 48.0861 159.928 47.9966 160.053C47.9071 160.179 47.839 160.338 47.7925 160.531C47.7459 160.721 47.7227 160.947 47.7227 161.208V162.524C47.7227 162.789 47.7459 163.018 47.7925 163.211C47.839 163.405 47.9071 163.564 47.9966 163.689C48.0897 163.815 48.2025 163.908 48.335 163.969C48.4674 164.03 48.616 164.06 48.7808 164.06C48.9491 164.06 49.0977 164.03 49.2266 163.969C49.359 163.908 49.4701 163.815 49.5596 163.689C49.6491 163.564 49.7153 163.405 49.7583 163.211C49.8049 163.018 49.8281 162.789 49.8281 162.524ZM53.1484 159.097V158.684C53.1484 158.386 53.2129 158.116 53.3418 157.873C53.4707 157.629 53.6587 157.434 53.9058 157.287C54.1528 157.14 54.45 157.067 54.7974 157.067C55.1554 157.067 55.4562 157.14 55.6997 157.287C55.9468 157.434 56.1348 157.629 56.2637 157.873C56.3926 158.116 56.457 158.386 56.457 158.684V159.097C56.457 159.387 56.3926 159.654 56.2637 159.897C56.1383 160.141 55.9521 160.336 55.7051 160.483C55.4616 160.63 55.1626 160.703 54.8081 160.703C54.4572 160.703 54.1564 160.63 53.9058 160.483C53.6587 160.336 53.4707 160.141 53.3418 159.897C53.2129 159.654 53.1484 159.387 53.1484 159.097ZM54.0454 158.684V159.097C54.0454 159.24 54.0723 159.376 54.126 159.505C54.1833 159.634 54.2692 159.738 54.3838 159.817C54.4984 159.896 54.6398 159.935 54.8081 159.935C54.98 159.935 55.1196 159.896 55.2271 159.817C55.3381 159.738 55.4204 159.634 55.4741 159.505C55.5278 159.376 55.5547 159.24 55.5547 159.097V158.684C55.5547 158.537 55.526 158.399 55.4688 158.27C55.415 158.138 55.3327 158.032 55.2217 157.953C55.1107 157.874 54.9692 157.835 54.7974 157.835C54.6326 157.835 54.493 157.874 54.3784 157.953C54.2674 158.032 54.1833 158.138 54.126 158.27C54.0723 158.399 54.0454 158.537 54.0454 158.684ZM56.9189 163.501V163.083C56.9189 162.789 56.9834 162.52 57.1123 162.277C57.2448 162.033 57.4346 161.838 57.6816 161.691C57.9287 161.545 58.2259 161.471 58.5732 161.471C58.9313 161.471 59.2321 161.545 59.4756 161.691C59.7227 161.838 59.9089 162.033 60.0342 162.277C60.1631 162.52 60.2275 162.789 60.2275 163.083V163.501C60.2275 163.795 60.1631 164.064 60.0342 164.307C59.9089 164.551 59.7244 164.746 59.481 164.893C59.2375 165.039 58.9403 165.113 58.5894 165.113C58.2349 165.113 57.9323 165.039 57.6816 164.893C57.4346 164.746 57.2448 164.551 57.1123 164.307C56.9834 164.064 56.9189 163.795 56.9189 163.501ZM57.8213 163.083V163.501C57.8213 163.645 57.8499 163.781 57.9072 163.91C57.9681 164.039 58.0558 164.144 58.1704 164.227C58.285 164.305 58.4229 164.345 58.584 164.345C58.7666 164.345 58.9134 164.305 59.0244 164.227C59.1354 164.144 59.2142 164.04 59.2607 163.915C59.3109 163.786 59.3359 163.648 59.3359 163.501V163.083C59.3359 162.936 59.3073 162.798 59.25 162.669C59.1963 162.54 59.1121 162.436 58.9976 162.357C58.8866 162.279 58.7451 162.239 58.5732 162.239C58.4049 162.239 58.2653 162.279 58.1543 162.357C58.0433 162.436 57.9591 162.54 57.9019 162.669C57.8481 162.798 57.8213 162.936 57.8213 163.083ZM58.8955 158.297L55.0767 164.409L54.416 164.028L58.2349 157.916L58.8955 158.297Z" fill="#949494"/>
<path d="M78 161.5H66" stroke="#655B96"/>
<path d="M44.5635 201.974V203H39.7886V202.125L42.0713 199.987C42.3076 199.768 42.4938 199.573 42.6299 199.401C42.7695 199.226 42.8698 199.068 42.9307 198.929C42.9915 198.785 43.022 198.657 43.022 198.542C43.022 198.291 42.9396 198.085 42.7749 197.924C42.6102 197.763 42.3739 197.683 42.0659 197.683C41.8117 197.683 41.6004 197.729 41.4321 197.822C41.2674 197.912 41.1457 198.035 41.0669 198.193C40.9881 198.35 40.9487 198.529 40.9487 198.73H39.6489C39.6489 198.35 39.7438 198.003 39.9336 197.688C40.1234 197.373 40.3955 197.122 40.75 196.936C41.1081 196.75 41.536 196.657 42.0337 196.657C42.5135 196.657 42.9235 196.732 43.2637 196.882C43.6074 197.033 43.8688 197.249 44.0479 197.532C44.2269 197.812 44.3164 198.143 44.3164 198.526C44.3164 198.737 44.2806 198.938 44.209 199.127C44.141 199.317 44.0407 199.502 43.9082 199.681C43.7757 199.86 43.6146 200.042 43.4248 200.229C43.235 200.415 43.0202 200.613 42.7803 200.825L41.4482 201.974H44.5635ZM47.6958 200.175L46.6646 199.928L47.062 196.743H50.8755V197.79H48.1362L47.9482 199.133C48.0449 199.09 48.1917 199.04 48.3887 198.982C48.5892 198.925 48.8112 198.896 49.0547 198.896C49.5023 198.896 49.8854 198.979 50.2041 199.144C50.5228 199.305 50.7663 199.539 50.9346 199.847C51.1064 200.152 51.1924 200.52 51.1924 200.954C51.1924 201.33 51.1082 201.681 50.9399 202.006C50.7716 202.329 50.5138 202.59 50.1665 202.791C49.8228 202.987 49.3841 203.086 48.8506 203.086C48.4531 203.086 48.0789 203.016 47.728 202.876C47.3771 202.737 47.0889 202.533 46.8633 202.264C46.6413 201.996 46.5195 201.668 46.498 201.281H47.7764C47.805 201.55 47.916 201.747 48.1094 201.872C48.3027 201.997 48.5498 202.06 48.8506 202.06C49.1012 202.06 49.3035 202.012 49.4575 201.915C49.6115 201.815 49.7225 201.681 49.7905 201.512C49.8621 201.34 49.8979 201.147 49.8979 200.932C49.8979 200.717 49.8532 200.528 49.7637 200.363C49.6742 200.194 49.5417 200.064 49.3662 199.971C49.1908 199.878 48.9777 199.831 48.7271 199.831C48.4406 199.831 48.224 199.869 48.0771 199.944C47.9339 200.015 47.8068 200.092 47.6958 200.175ZM53.1484 197.097V196.684C53.1484 196.386 53.2129 196.116 53.3418 195.873C53.4707 195.629 53.6587 195.434 53.9058 195.287C54.1528 195.14 54.45 195.067 54.7974 195.067C55.1554 195.067 55.4562 195.14 55.6997 195.287C55.9468 195.434 56.1348 195.629 56.2637 195.873C56.3926 196.116 56.457 196.386 56.457 196.684V197.097C56.457 197.387 56.3926 197.654 56.2637 197.897C56.1383 198.141 55.9521 198.336 55.7051 198.483C55.4616 198.63 55.1626 198.703 54.8081 198.703C54.4572 198.703 54.1564 198.63 53.9058 198.483C53.6587 198.336 53.4707 198.141 53.3418 197.897C53.2129 197.654 53.1484 197.387 53.1484 197.097ZM54.0454 196.684V197.097C54.0454 197.24 54.0723 197.376 54.126 197.505C54.1833 197.634 54.2692 197.738 54.3838 197.817C54.4984 197.896 54.6398 197.935 54.8081 197.935C54.98 197.935 55.1196 197.896 55.2271 197.817C55.3381 197.738 55.4204 197.634 55.4741 197.505C55.5278 197.376 55.5547 197.24 55.5547 197.097V196.684C55.5547 196.537 55.526 196.399 55.4688 196.27C55.415 196.138 55.3327 196.032 55.2217 195.953C55.1107 195.874 54.9692 195.835 54.7974 195.835C54.6326 195.835 54.493 195.874 54.3784 195.953C54.2674 196.032 54.1833 196.138 54.126 196.27C54.0723 196.399 54.0454 196.537 54.0454 196.684ZM56.9189 201.501V201.083C56.9189 200.789 56.9834 200.52 57.1123 200.277C57.2448 200.033 57.4346 199.838 57.6816 199.691C57.9287 199.545 58.2259 199.471 58.5732 199.471C58.9313 199.471 59.2321 199.545 59.4756 199.691C59.7227 199.838 59.9089 200.033 60.0342 200.277C60.1631 200.52 60.2275 200.789 60.2275 201.083V201.501C60.2275 201.795 60.1631 202.064 60.0342 202.307C59.9089 202.551 59.7244 202.746 59.481 202.893C59.2375 203.039 58.9403 203.113 58.5894 203.113C58.2349 203.113 57.9323 203.039 57.6816 202.893C57.4346 202.746 57.2448 202.551 57.1123 202.307C56.9834 202.064 56.9189 201.795 56.9189 201.501ZM57.8213 201.083V201.501C57.8213 201.645 57.8499 201.781 57.9072 201.91C57.9681 202.039 58.0558 202.144 58.1704 202.227C58.285 202.305 58.4229 202.345 58.584 202.345C58.7666 202.345 58.9134 202.305 59.0244 202.227C59.1354 202.144 59.2142 202.04 59.2607 201.915C59.3109 201.786 59.3359 201.648 59.3359 201.501V201.083C59.3359 200.936 59.3073 200.798 59.25 200.669C59.1963 200.54 59.1121 200.436 58.9976 200.357C58.8866 200.279 58.7451 200.239 58.5732 200.239C58.4049 200.239 58.2653 200.279 58.1543 200.357C58.0433 200.436 57.9591 200.54 57.9019 200.669C57.8481 200.798 57.8213 200.936 57.8213 201.083ZM58.8955 196.297L55.0767 202.409L54.416 202.028L58.2349 195.916L58.8955 196.297Z" fill="#949494"/>
<path d="M78 199.5H66" stroke="#655B96"/>
<path d="M51.2974 237.321V238.422C51.2974 238.877 51.2401 239.272 51.1255 239.609C51.0145 239.942 50.8551 240.218 50.6475 240.436C50.4434 240.654 50.1963 240.817 49.9062 240.925C49.6198 241.032 49.3011 241.086 48.9502 241.086C48.5993 241.086 48.2788 241.032 47.9888 240.925C47.7023 240.817 47.4552 240.654 47.2476 240.436C47.0399 240.218 46.8787 239.942 46.7642 239.609C46.6496 239.272 46.5923 238.877 46.5923 238.422V237.321C46.5923 236.866 46.6478 236.472 46.7588 236.139C46.8734 235.806 47.0345 235.53 47.2422 235.312C47.4499 235.09 47.6969 234.925 47.9834 234.818C48.2699 234.71 48.5885 234.657 48.9395 234.657C49.2904 234.657 49.6108 234.71 49.9009 234.818C50.1909 234.925 50.4398 235.09 50.6475 235.312C50.8551 235.53 51.0145 235.806 51.1255 236.139C51.2401 236.472 51.2974 236.866 51.2974 237.321ZM49.9976 238.524V237.208C49.9976 236.947 49.9743 236.721 49.9277 236.531C49.8812 236.338 49.8132 236.179 49.7236 236.053C49.6341 235.928 49.5231 235.837 49.3906 235.779C49.2617 235.718 49.1113 235.688 48.9395 235.688C48.7747 235.688 48.6261 235.718 48.4937 235.779C48.3647 235.837 48.2555 235.928 48.166 236.053C48.0765 236.179 48.0085 236.338 47.9619 236.531C47.9154 236.721 47.8921 236.947 47.8921 237.208V238.524C47.8921 238.789 47.9154 239.018 47.9619 239.211C48.0085 239.405 48.0765 239.564 48.166 239.689C48.2591 239.815 48.3719 239.908 48.5044 239.969C48.6369 240.03 48.7855 240.06 48.9502 240.06C49.1185 240.06 49.2671 240.03 49.396 239.969C49.5285 239.908 49.6395 239.815 49.729 239.689C49.8185 239.564 49.8848 239.405 49.9277 239.211C49.9743 239.018 49.9976 238.789 49.9976 238.524ZM53.3179 235.097V234.684C53.3179 234.386 53.3823 234.116 53.5112 233.873C53.6401 233.629 53.8281 233.434 54.0752 233.287C54.3223 233.14 54.6195 233.067 54.9668 233.067C55.3249 233.067 55.6257 233.14 55.8691 233.287C56.1162 233.434 56.3042 233.629 56.4331 233.873C56.562 234.116 56.6265 234.386 56.6265 234.684V235.097C56.6265 235.387 56.562 235.654 56.4331 235.897C56.3078 236.141 56.1216 236.336 55.8745 236.483C55.631 236.63 55.332 236.703 54.9775 236.703C54.6266 236.703 54.3258 236.63 54.0752 236.483C53.8281 236.336 53.6401 236.141 53.5112 235.897C53.3823 235.654 53.3179 235.387 53.3179 235.097ZM54.2148 234.684V235.097C54.2148 235.24 54.2417 235.376 54.2954 235.505C54.3527 235.634 54.4386 235.738 54.5532 235.817C54.6678 235.896 54.8092 235.935 54.9775 235.935C55.1494 235.935 55.2891 235.896 55.3965 235.817C55.5075 235.738 55.5898 235.634 55.6436 235.505C55.6973 235.376 55.7241 235.24 55.7241 235.097V234.684C55.7241 234.537 55.6955 234.399 55.6382 234.27C55.5845 234.138 55.5021 234.032 55.3911 233.953C55.2801 233.874 55.1387 233.835 54.9668 233.835C54.8021 233.835 54.6624 233.874 54.5479 233.953C54.4368 234.032 54.3527 234.138 54.2954 234.27C54.2417 234.399 54.2148 234.537 54.2148 234.684ZM57.0884 239.501V239.083C57.0884 238.789 57.1528 238.52 57.2817 238.277C57.4142 238.033 57.604 237.838 57.8511 237.691C58.0981 237.545 58.3953 237.471 58.7427 237.471C59.1007 237.471 59.4015 237.545 59.645 237.691C59.8921 237.838 60.0783 238.033 60.2036 238.277C60.3325 238.52 60.397 238.789 60.397 239.083V239.501C60.397 239.795 60.3325 240.064 60.2036 240.307C60.0783 240.551 59.8939 240.746 59.6504 240.893C59.4069 241.039 59.1097 241.113 58.7588 241.113C58.4043 241.113 58.1017 241.039 57.8511 240.893C57.604 240.746 57.4142 240.551 57.2817 240.307C57.1528 240.064 57.0884 239.795 57.0884 239.501ZM57.9907 239.083V239.501C57.9907 239.645 58.0194 239.781 58.0767 239.91C58.1375 240.039 58.2253 240.144 58.3398 240.227C58.4544 240.305 58.5923 240.345 58.7534 240.345C58.936 240.345 59.0828 240.305 59.1938 240.227C59.3049 240.144 59.3836 240.04 59.4302 239.915C59.4803 239.786 59.5054 239.648 59.5054 239.501V239.083C59.5054 238.936 59.4767 238.798 59.4194 238.669C59.3657 238.54 59.2816 238.436 59.167 238.357C59.056 238.279 58.9146 238.239 58.7427 238.239C58.5744 238.239 58.4347 238.279 58.3237 238.357C58.2127 238.436 58.1286 238.54 58.0713 238.669C58.0176 238.798 57.9907 238.936 57.9907 239.083ZM59.0649 234.297L55.2461 240.409L54.5854 240.028L58.4043 233.916L59.0649 234.297Z" fill="#949494"/>
<path d="M78 237.5H66" stroke="#655B96"/>
<path d="M78 79V254" stroke="#655B96"/>
<path d="M81 112C81 109.791 82.7909 108 85 108C87.2091 108 89 109.791 89 112V254H81V112Z" fill="#091F5B"/>
<path d="M89 168C89 165.791 90.7909 164 93 164C95.2091 164 97 165.791 97 168V254H89V168Z" fill="#CE2A96"/>
<path d="M242 112C242 109.791 243.791 108 246 108C248.209 108 250 109.791 250 112V254H242V112Z" fill="#091F5B"/>
<path d="M250 168C250 165.791 251.791 164 254 164C256.209 164 258 165.791 258 168V254H250V168Z" fill="#CE2A96"/>
<path d="M404 99C404 96.7909 405.791 95 408 95C410.209 95 412 96.7909 412 99V254H404V99Z" fill="#091F5B"/>
<path d="M412 168C412 165.791 413.791 164 416 164C418.209 164 420 165.791 420 168V254H412V168Z" fill="#CE2A96"/>
<path d="M563 112C563 109.791 564.791 108 567 108C569.209 108 571 109.791 571 112V254H563V112Z" fill="#091F5B"/>
<path d="M571 178C571 175.791 572.791 174 575 174C577.209 174 579 175.791 579 178V254H571V178Z" fill="#CE2A96"/>
<path d="M133 140C133 137.791 134.791 136 137 136C139.209 136 141 137.791 141 140V254H133V140Z" fill="#091F5B"/>
<path d="M141 189C141 186.791 142.791 185 145 185C147.209 185 149 186.791 149 189V254H141V189Z" fill="#CE2A96"/>
<path d="M296 140C296 137.791 297.791 136 300 136C302.209 136 304 137.791 304 140V254H296V140Z" fill="#091F5B"/>
<path d="M304 189C304 186.791 305.791 185 308 185C310.209 185 312 186.791 312 189V254H304V189Z" fill="#CE2A96"/>
<path d="M457 140C457 137.791 458.791 136 461 136C463.209 136 465 137.791 465 140V254H457V140Z" fill="#091F5B"/>
<path d="M465 189C465 186.791 466.791 185 469 185C471.209 185 473 186.791 473 189V254H465V189Z" fill="#CE2A96"/>
<path d="M617 139C617 136.791 618.791 135 621 135C623.209 135 625 136.791 625 139V253H617V139Z" fill="#091F5B"/>
<path d="M625 188C625 185.791 626.791 184 629 184C631.209 184 633 185.791 633 188V253H625V188Z" fill="#CE2A96"/>
<path d="M671 139C671 136.791 672.791 135 675 135C677.209 135 679 136.791 679 139V253H671V139Z" fill="#091F5B"/>
<path d="M679 188C679 185.791 680.791 184 683 184C685.209 184 687 185.791 687 188V253H679V188Z" fill="#CE2A96"/>
<path d="M187 136C187 133.791 188.791 132 191 132C193.209 132 195 133.791 195 136V254H187V136Z" fill="#091F5B"/>
<path d="M195 202C195 199.791 196.791 198 199 198C201.209 198 203 199.791 203 202V254H195V202Z" fill="#CE2A96"/>
<path d="M351 136C351 133.791 352.791 132 355 132C357.209 132 359 133.791 359 136V254H351V136Z" fill="#091F5B"/>
<path d="M359 202C359 199.791 360.791 198 363 198C365.209 198 367 199.791 367 202V254H359V202Z" fill="#CE2A96"/>
<path d="M78 254H689" stroke="#655B96"/>
<path d="M88.5 254V264" stroke="#655B96"/>
<path d="M81.7261 277.029V272.743H83.0259V277.029C83.0259 277.462 82.9292 277.833 82.7358 278.141C82.5425 278.445 82.2811 278.68 81.9517 278.844C81.6258 279.005 81.2588 279.086 80.8506 279.086C80.403 279.086 80.0073 279.016 79.6636 278.876C79.3198 278.733 79.0495 278.517 78.8525 278.227C78.6592 277.933 78.5625 277.561 78.5625 277.109H79.8623C79.8623 277.331 79.9017 277.514 79.9805 277.657C80.0592 277.797 80.172 277.899 80.3188 277.963C80.4692 278.028 80.6465 278.06 80.8506 278.06C81.0332 278.06 81.189 278.021 81.3179 277.942C81.4504 277.863 81.5506 277.749 81.6187 277.598C81.6903 277.444 81.7261 277.254 81.7261 277.029ZM87.8662 274.026L85.9863 279H84.6758L87.1948 272.743H88.0649L87.8662 274.026ZM89.6011 279L87.7104 274.016L87.5117 272.743H88.3979L90.9116 279H89.6011ZM89.5205 276.68V277.652H85.9434V276.68H89.5205ZM98.0132 272.743V279H96.7134L93.8882 274.687V279H92.5938V272.743H93.8882L96.7134 277.056V272.743H98.0132Z" fill="#949494"/>
<path d="M141.227 254V264" stroke="#655B96"/>
<path d="M133.884 272.743V279H132.59V272.743H133.884ZM136.596 275.401V276.433H133.535V275.401H136.596ZM136.946 272.743V273.774H133.535V272.743H136.946ZM143.258 277.974V279H139.675V277.974H143.258ZM140.083 272.743V279H138.789V272.743H140.083ZM142.796 275.251V276.277H139.675V275.251H142.796ZM143.247 272.743V273.774H139.675V272.743H143.247ZM147.706 276.266H145.976L145.966 275.375H147.507C147.74 275.375 147.937 275.344 148.098 275.283C148.259 275.222 148.381 275.135 148.463 275.02C148.549 274.902 148.592 274.759 148.592 274.59C148.592 274.401 148.551 274.245 148.469 274.123C148.386 274.001 148.263 273.914 148.098 273.86C147.933 273.803 147.729 273.774 147.486 273.774H146.411V279H145.117V272.743H147.416C147.802 272.743 148.146 272.778 148.447 272.85C148.751 272.918 149.011 273.022 149.226 273.162C149.441 273.301 149.604 273.48 149.715 273.699C149.829 273.914 149.886 274.168 149.886 274.461C149.886 274.716 149.822 274.952 149.693 275.17C149.568 275.389 149.374 275.566 149.113 275.702C148.852 275.838 148.513 275.913 148.098 275.928L147.706 276.266ZM147.647 279H145.611L146.137 277.974H147.647C147.897 277.974 148.103 277.938 148.264 277.867C148.429 277.795 148.551 277.698 148.63 277.577C148.708 277.451 148.748 277.308 148.748 277.147C148.748 276.968 148.712 276.814 148.64 276.685C148.572 276.553 148.461 276.451 148.307 276.379C148.153 276.304 147.953 276.266 147.706 276.266H146.385L146.39 275.375H148.066L148.361 275.724C148.759 275.716 149.081 275.786 149.328 275.933C149.575 276.076 149.756 276.263 149.87 276.492C149.989 276.721 150.048 276.959 150.048 277.206C150.048 277.51 149.994 277.775 149.886 278.001C149.779 278.223 149.623 278.409 149.419 278.56C149.215 278.706 148.964 278.817 148.667 278.893C148.37 278.964 148.03 279 147.647 279Z" fill="#949494"/>
<path d="M194.955 254V264" stroke="#655B96"/>
<path d="M184.84 272.743H185.957L187.767 277.303L189.572 272.743H190.689L188.208 279H187.321L184.84 272.743ZM184.265 272.743H185.361L185.56 277.281V279H184.265V272.743ZM190.173 272.743H191.274V279H189.98V277.281L190.173 272.743ZM196.147 274.026L194.267 279H192.957L195.476 272.743H196.346L196.147 274.026ZM197.882 279L195.991 274.016L195.792 272.743H196.679L199.192 279H197.882ZM197.801 276.68V277.652H194.224V276.68H197.801ZM200.869 272.743H203.334C203.718 272.743 204.061 272.784 204.366 272.866C204.67 272.949 204.928 273.07 205.139 273.231C205.354 273.389 205.517 273.586 205.628 273.822C205.743 274.055 205.8 274.325 205.8 274.633C205.8 274.973 205.739 275.265 205.617 275.509C205.495 275.749 205.324 275.947 205.102 276.105C204.88 276.263 204.618 276.39 204.317 276.486L203.904 276.712H201.729L201.718 275.681H203.351C203.608 275.681 203.821 275.641 203.99 275.562C204.158 275.484 204.285 275.375 204.371 275.235C204.457 275.092 204.5 274.927 204.5 274.741C204.5 274.544 204.457 274.374 204.371 274.23C204.289 274.084 204.16 273.971 203.984 273.892C203.812 273.813 203.596 273.774 203.334 273.774H202.169V279H200.869V272.743ZM204.661 279L203.114 276.229L204.484 276.218L206.058 278.941V279H204.661Z" fill="#949494"/>
<path d="M249.682 254V264" stroke="#655B96"/>
<path d="M242.693 274.026L240.813 279H239.503L242.022 272.743H242.892L242.693 274.026ZM244.428 279L242.537 274.016L242.339 272.743H243.225L245.739 279H244.428ZM244.347 276.68V277.652H240.77V276.68H244.347ZM250.01 276.792H248.28V275.761H250.01C250.289 275.761 250.516 275.72 250.692 275.638C250.871 275.555 251.001 275.444 251.084 275.305C251.17 275.161 251.213 275 251.213 274.821C251.213 274.635 251.17 274.463 251.084 274.306C251.001 274.148 250.871 274.021 250.692 273.924C250.516 273.824 250.289 273.774 250.01 273.774H248.715V279H247.421V272.743H250.01C250.536 272.743 250.985 272.832 251.358 273.011C251.73 273.19 252.013 273.436 252.206 273.747C252.403 274.055 252.502 274.41 252.502 274.811C252.502 275.111 252.446 275.383 252.335 275.627C252.224 275.87 252.061 276.08 251.846 276.255C251.632 276.427 251.37 276.56 251.062 276.653C250.754 276.746 250.403 276.792 250.01 276.792ZM254.495 272.743H256.961C257.344 272.743 257.688 272.784 257.992 272.866C258.296 272.949 258.554 273.07 258.765 273.231C258.98 273.389 259.143 273.586 259.254 273.822C259.369 274.055 259.426 274.325 259.426 274.633C259.426 274.973 259.365 275.265 259.243 275.509C259.122 275.749 258.95 275.947 258.728 276.105C258.506 276.263 258.244 276.39 257.944 276.486L257.53 276.712H255.355L255.344 275.681H256.977C257.235 275.681 257.448 275.641 257.616 275.562C257.784 275.484 257.911 275.375 257.997 275.235C258.083 275.092 258.126 274.927 258.126 274.741C258.126 274.544 258.083 274.374 257.997 274.23C257.915 274.084 257.786 273.971 257.611 273.892C257.439 273.813 257.222 273.774 256.961 273.774H255.795V279H254.495V272.743ZM258.287 279L256.74 276.229L258.11 276.218L259.684 278.941V279H258.287Z" fill="#949494"/>
<path d="M304.409 254V264" stroke="#655B96"/>
<path d="M294.574 272.743H295.691L297.501 277.303L299.306 272.743H300.423L297.941 279H297.055L294.574 272.743ZM293.999 272.743H295.095L295.293 277.281V279H293.999V272.743ZM299.907 272.743H301.008V279H299.714V277.281L299.907 272.743ZM305.881 274.026L304.001 279H302.69L305.209 272.743H306.08L305.881 274.026ZM307.616 279L305.725 274.016L305.526 272.743H306.413L308.926 279H307.616ZM307.535 276.68V277.652H303.958V276.68H307.535ZM312.22 276.245L314.003 272.743H315.421L313.106 276.916H312.375L312.22 276.245ZM311.07 272.743L312.864 276.277L312.687 276.916H311.967L309.652 272.743H311.07ZM313.165 276.067V279H311.871V276.067H313.165Z" fill="#949494"/>
<path d="M359.136 254V264" stroke="#655B96"/>
<path d="M352.411 277.029V272.743H353.71V277.029C353.71 277.462 353.614 277.833 353.42 278.141C353.227 278.445 352.966 278.68 352.636 278.844C352.31 279.005 351.943 279.086 351.535 279.086C351.088 279.086 350.692 279.016 350.348 278.876C350.004 278.733 349.734 278.517 349.537 278.227C349.344 277.933 349.247 277.561 349.247 277.109H350.547C350.547 277.331 350.586 277.514 350.665 277.657C350.744 277.797 350.857 277.899 351.003 277.963C351.154 278.028 351.331 278.06 351.535 278.06C351.718 278.06 351.874 278.021 352.002 277.942C352.135 277.863 352.235 277.749 352.303 277.598C352.375 277.444 352.411 277.254 352.411 277.029ZM359.689 272.743H360.989V276.868C360.989 277.347 360.878 277.754 360.656 278.087C360.434 278.416 360.132 278.665 359.749 278.833C359.365 279.002 358.929 279.086 358.438 279.086C357.94 279.086 357.498 279.002 357.111 278.833C356.728 278.665 356.427 278.416 356.209 278.087C355.991 277.754 355.881 277.347 355.881 276.868V272.743H357.17V276.868C357.17 277.143 357.221 277.371 357.321 277.55C357.425 277.725 357.571 277.854 357.761 277.937C357.951 278.019 358.177 278.06 358.438 278.06C358.699 278.06 358.923 278.019 359.109 277.937C359.296 277.854 359.439 277.725 359.539 277.55C359.639 277.371 359.689 277.143 359.689 276.868V272.743ZM368.601 272.743V279H367.301L364.476 274.687V279H363.182V272.743H364.476L367.301 277.056V272.743H368.601Z" fill="#949494"/>
<path d="M411.864 254V264" stroke="#655B96"/>
<path d="M405.922 277.029V272.743H407.222V277.029C407.222 277.462 407.125 277.833 406.932 278.141C406.739 278.445 406.477 278.68 406.148 278.844C405.822 279.005 405.455 279.086 405.047 279.086C404.599 279.086 404.203 279.016 403.86 278.876C403.516 278.733 403.246 278.517 403.049 278.227C402.855 277.933 402.759 277.561 402.759 277.109H404.058C404.058 277.331 404.098 277.514 404.177 277.657C404.255 277.797 404.368 277.899 404.515 277.963C404.665 278.028 404.843 278.06 405.047 278.06C405.229 278.06 405.385 278.021 405.514 277.942C405.646 277.863 405.747 277.749 405.815 277.598C405.886 277.444 405.922 277.254 405.922 277.029ZM413.201 272.743H414.501V276.868C414.501 277.347 414.39 277.754 414.168 278.087C413.946 278.416 413.643 278.665 413.26 278.833C412.877 279.002 412.44 279.086 411.949 279.086C411.452 279.086 411.01 279.002 410.623 278.833C410.24 278.665 409.939 278.416 409.72 278.087C409.502 277.754 409.393 277.347 409.393 276.868V272.743H410.682V276.868C410.682 277.143 410.732 277.371 410.832 277.55C410.936 277.725 411.083 277.854 411.273 277.937C411.462 278.019 411.688 278.06 411.949 278.06C412.211 278.06 412.435 278.019 412.621 277.937C412.807 277.854 412.95 277.725 413.051 277.55C413.151 277.371 413.201 277.143 413.201 276.868V272.743ZM420.969 277.974V279H417.579V277.974H420.969ZM417.988 272.743V279H416.693V272.743H417.988Z" fill="#949494"/>
<path d="M464.591 254V264" stroke="#655B96"/>
<path d="M457.398 274.026L455.518 279H454.208L456.727 272.743H457.597L457.398 274.026ZM459.133 279L457.242 274.016L457.043 272.743H457.93L460.443 279H459.133ZM459.052 276.68V277.652H455.475V276.68H459.052ZM465.756 272.743H467.056V276.868C467.056 277.347 466.945 277.754 466.723 278.087C466.501 278.416 466.199 278.665 465.815 278.833C465.432 279.002 464.995 279.086 464.505 279.086C464.007 279.086 463.565 279.002 463.178 278.833C462.795 278.665 462.494 278.416 462.276 278.087C462.057 277.754 461.948 277.347 461.948 276.868V272.743H463.237V276.868C463.237 277.143 463.287 277.371 463.388 277.55C463.492 277.725 463.638 277.854 463.828 277.937C464.018 278.019 464.243 278.06 464.505 278.06C464.766 278.06 464.99 278.019 465.176 277.937C465.362 277.854 465.506 277.725 465.606 277.55C465.706 277.371 465.756 277.143 465.756 276.868V272.743ZM474.518 275.724V278.216C474.414 278.334 474.256 278.461 474.045 278.597C473.834 278.733 473.558 278.85 473.218 278.946C472.878 279.039 472.46 279.086 471.966 279.086C471.537 279.086 471.145 279.02 470.79 278.887C470.439 278.751 470.135 278.554 469.877 278.296C469.619 278.039 469.42 277.723 469.281 277.351C469.145 276.975 469.077 276.547 469.077 276.067V275.675C469.077 275.195 469.143 274.769 469.275 274.397C469.408 274.021 469.596 273.704 469.839 273.446C470.086 273.188 470.382 272.993 470.726 272.861C471.069 272.725 471.452 272.657 471.875 272.657C472.448 272.657 472.919 272.746 473.288 272.925C473.66 273.101 473.945 273.344 474.142 273.656C474.339 273.967 474.462 274.325 474.512 274.73H473.25C473.214 274.515 473.146 274.331 473.046 274.177C472.946 274.019 472.802 273.897 472.616 273.812C472.434 273.726 472.197 273.683 471.907 273.683C471.664 273.683 471.445 273.726 471.252 273.812C471.062 273.894 470.901 274.019 470.769 274.188C470.64 274.356 470.541 274.563 470.473 274.811C470.409 275.054 470.376 275.339 470.376 275.665V276.067C470.376 276.393 470.412 276.681 470.484 276.932C470.559 277.179 470.667 277.387 470.806 277.555C470.949 277.723 471.123 277.851 471.327 277.937C471.535 278.019 471.771 278.06 472.036 278.06C472.391 278.06 472.657 278.024 472.836 277.953C473.015 277.877 473.143 277.808 473.218 277.743V276.653H471.864V275.724H474.518Z" fill="#949494"/>
<path d="M517.818 254V264" stroke="#655B96"/>
<path d="M512.371 277.362C512.371 277.244 512.349 277.138 512.306 277.045C512.267 276.952 512.197 276.868 512.097 276.792C512 276.714 511.866 276.64 511.694 276.572C511.526 276.504 511.313 276.44 511.055 276.379C510.683 276.289 510.353 276.189 510.067 276.078C509.784 275.964 509.546 275.831 509.352 275.681C509.159 275.53 509.012 275.353 508.912 275.149C508.815 274.945 508.767 274.707 508.767 274.435C508.767 274.173 508.824 273.935 508.939 273.72C509.053 273.502 509.216 273.314 509.427 273.156C509.639 272.995 509.889 272.872 510.179 272.786C510.469 272.7 510.788 272.657 511.135 272.657C511.64 272.657 512.079 272.739 512.451 272.904C512.824 273.069 513.112 273.296 513.316 273.586C513.524 273.872 513.628 274.205 513.628 274.585H512.333C512.333 274.406 512.287 274.245 512.194 274.102C512.104 273.958 511.972 273.844 511.796 273.758C511.621 273.672 511.4 273.629 511.135 273.629C510.881 273.629 510.672 273.667 510.507 273.742C510.342 273.813 510.219 273.908 510.136 274.026C510.058 274.141 510.018 274.266 510.018 274.402C510.018 274.51 510.042 274.606 510.088 274.692C510.138 274.778 510.217 274.857 510.324 274.929C510.432 275 510.572 275.068 510.743 275.133C510.915 275.197 511.125 275.26 511.372 275.321C511.741 275.407 512.066 275.509 512.349 275.627C512.632 275.745 512.869 275.885 513.058 276.046C513.248 276.203 513.39 276.39 513.483 276.604C513.579 276.816 513.628 277.057 513.628 277.33C513.628 277.605 513.57 277.852 513.456 278.071C513.341 278.286 513.177 278.468 512.962 278.619C512.75 278.769 512.496 278.885 512.199 278.968C511.902 279.047 511.571 279.086 511.205 279.086C510.883 279.086 510.563 279.047 510.244 278.968C509.929 278.889 509.644 278.767 509.39 278.603C509.136 278.438 508.932 278.228 508.778 277.974C508.627 277.716 508.552 277.414 508.552 277.066H509.852C509.852 277.253 509.884 277.414 509.948 277.55C510.017 277.682 510.111 277.792 510.233 277.877C510.358 277.96 510.507 278.021 510.679 278.06C510.851 278.099 511.041 278.119 511.248 278.119C511.51 278.119 511.723 278.085 511.887 278.017C512.056 277.945 512.177 277.852 512.253 277.738C512.331 277.623 512.371 277.498 512.371 277.362ZM520.117 277.974V279H516.534V277.974H520.117ZM516.943 272.743V279H515.648V272.743H516.943ZM519.655 275.251V276.277H516.534V275.251H519.655ZM520.106 272.743V273.774H516.534V272.743H520.106ZM524.565 276.792H522.836V275.761H524.565C524.844 275.761 525.072 275.72 525.247 275.638C525.426 275.555 525.557 275.444 525.639 275.305C525.725 275.161 525.768 275 525.768 274.821C525.768 274.635 525.725 274.463 525.639 274.306C525.557 274.148 525.426 274.021 525.247 273.924C525.072 273.824 524.844 273.774 524.565 273.774H523.271V279H521.976V272.743H524.565C525.092 272.743 525.541 272.832 525.913 273.011C526.286 273.19 526.569 273.436 526.762 273.747C526.959 274.055 527.057 274.41 527.057 274.811C527.057 275.111 527.002 275.383 526.891 275.627C526.78 275.87 526.617 276.08 526.402 276.255C526.187 276.427 525.926 276.56 525.618 276.653C525.31 276.746 524.959 276.792 524.565 276.792Z" fill="#949494"/>
<path d="M571.045 254V264" stroke="#655B96"/>
<path d="M566.86 275.724V276.024C566.86 276.501 566.792 276.927 566.656 277.303C566.52 277.679 566.327 278.001 566.076 278.27C565.829 278.535 565.532 278.737 565.185 278.876C564.837 279.016 564.454 279.086 564.035 279.086C563.616 279.086 563.233 279.016 562.886 278.876C562.538 278.737 562.238 278.535 561.983 278.27C561.729 278.001 561.532 277.679 561.393 277.303C561.257 276.927 561.188 276.501 561.188 276.024V275.724C561.188 275.247 561.257 274.821 561.393 274.445C561.532 274.069 561.727 273.747 561.978 273.479C562.229 273.21 562.528 273.006 562.875 272.866C563.222 272.727 563.605 272.657 564.024 272.657C564.447 272.657 564.83 272.727 565.174 272.866C565.521 273.006 565.82 273.21 566.071 273.479C566.325 273.747 566.52 274.069 566.656 274.445C566.792 274.821 566.86 275.247 566.86 275.724ZM565.566 276.024V275.713C565.566 275.387 565.532 275.099 565.464 274.848C565.396 274.597 565.294 274.386 565.158 274.214C565.025 274.042 564.864 273.912 564.674 273.822C564.485 273.733 564.268 273.688 564.024 273.688C563.785 273.688 563.568 273.733 563.375 273.822C563.185 273.912 563.024 274.042 562.891 274.214C562.762 274.386 562.662 274.597 562.59 274.848C562.522 275.099 562.488 275.387 562.488 275.713V276.024C562.488 276.347 562.522 276.635 562.59 276.889C562.662 277.14 562.764 277.353 562.896 277.528C563.033 277.7 563.195 277.833 563.385 277.926C563.579 278.015 563.795 278.06 564.035 278.06C564.279 278.06 564.493 278.015 564.68 277.926C564.869 277.833 565.031 277.7 565.163 277.528C565.296 277.353 565.396 277.14 565.464 276.889C565.532 276.635 565.566 276.347 565.566 276.024ZM572.845 276.916H574.145C574.112 277.342 573.987 277.718 573.769 278.044C573.554 278.37 573.253 278.626 572.866 278.812C572.479 278.995 572.012 279.086 571.464 279.086C571.038 279.086 570.655 279.016 570.315 278.876C569.978 278.737 569.69 278.538 569.45 278.28C569.214 278.019 569.031 277.704 568.902 277.335C568.777 276.963 568.714 276.545 568.714 276.083V275.665C568.714 275.203 568.779 274.787 568.908 274.418C569.037 274.046 569.223 273.729 569.466 273.468C569.71 273.203 570 273.002 570.336 272.866C570.677 272.727 571.058 272.657 571.48 272.657C572.035 272.657 572.503 272.752 572.882 272.941C573.262 273.128 573.557 273.387 573.769 273.72C573.98 274.053 574.107 274.435 574.15 274.864H572.855C572.834 274.632 572.775 274.427 572.678 274.252C572.582 274.073 572.437 273.933 572.243 273.833C572.05 273.733 571.796 273.683 571.48 273.683C571.237 273.683 571.024 273.726 570.841 273.812C570.659 273.894 570.505 274.019 570.379 274.188C570.258 274.356 570.165 274.563 570.1 274.811C570.039 275.054 570.009 275.337 570.009 275.659V276.083C570.009 276.399 570.036 276.68 570.089 276.927C570.147 277.17 570.234 277.376 570.353 277.544C570.471 277.713 570.621 277.842 570.804 277.931C570.99 278.017 571.21 278.06 571.464 278.06C571.769 278.06 572.018 278.019 572.211 277.937C572.404 277.851 572.553 277.722 572.657 277.55C572.761 277.378 572.823 277.167 572.845 276.916ZM579.028 272.743V279H577.733V272.743H579.028ZM581.112 272.743V273.774H575.676V272.743H581.112Z" fill="#949494"/>
<path d="M625.273 254V264" stroke="#655B96"/>
<path d="M620.69 272.743V279H619.39L616.565 274.687V279H615.271V272.743H616.565L619.39 277.056V272.743H620.69ZM628.409 275.724V276.024C628.409 276.501 628.341 276.927 628.205 277.303C628.069 277.679 627.876 278.001 627.625 278.27C627.378 278.535 627.081 278.737 626.734 278.876C626.386 279.016 626.003 279.086 625.584 279.086C625.165 279.086 624.782 279.016 624.435 278.876C624.087 278.737 623.787 278.535 623.532 278.27C623.278 278.001 623.081 277.679 622.942 277.303C622.806 276.927 622.738 276.501 622.738 276.024V275.724C622.738 275.247 622.806 274.821 622.942 274.445C623.081 274.069 623.276 273.747 623.527 273.479C623.778 273.21 624.077 273.006 624.424 272.866C624.771 272.727 625.155 272.657 625.573 272.657C625.996 272.657 626.379 272.727 626.723 272.866C627.07 273.006 627.369 273.21 627.62 273.479C627.874 273.747 628.069 274.069 628.205 274.445C628.341 274.821 628.409 275.247 628.409 275.724ZM627.115 276.024V275.713C627.115 275.387 627.081 275.099 627.013 274.848C626.945 274.597 626.843 274.386 626.707 274.214C626.574 274.042 626.413 273.912 626.223 273.822C626.034 273.733 625.817 273.688 625.573 273.688C625.334 273.688 625.117 273.733 624.924 273.822C624.734 273.912 624.573 274.042 624.44 274.214C624.311 274.386 624.211 274.597 624.139 274.848C624.071 275.099 624.037 275.387 624.037 275.713V276.024C624.037 276.347 624.071 276.635 624.139 276.889C624.211 277.14 624.313 277.353 624.446 277.528C624.582 277.7 624.745 277.833 624.934 277.926C625.128 278.015 625.344 278.06 625.584 278.06C625.828 278.06 626.043 278.015 626.229 277.926C626.419 277.833 626.58 277.7 626.712 277.528C626.845 277.353 626.945 277.14 627.013 276.889C627.081 276.635 627.115 276.347 627.115 276.024ZM632.917 277.378L634.49 272.743H635.86L633.497 279H632.535L632.917 277.378ZM631.171 272.743L632.729 277.367L633.121 279H632.154L629.796 272.743H631.171Z" fill="#949494"/>
<path d="M679 254V264" stroke="#655B96"/>
<path d="M671.823 279H670.362L670.373 277.974H671.823C672.235 277.974 672.572 277.899 672.833 277.749C673.094 277.595 673.286 277.373 673.408 277.083C673.533 276.792 673.596 276.44 673.596 276.024V275.713C673.596 275.401 673.56 275.126 673.488 274.886C673.42 274.642 673.315 274.438 673.171 274.273C673.028 274.109 672.846 273.985 672.624 273.903C672.405 273.817 672.146 273.774 671.845 273.774H670.335V272.743H671.845C672.292 272.743 672.702 272.814 673.075 272.958C673.451 273.101 673.773 273.305 674.042 273.57C674.314 273.831 674.523 274.145 674.67 274.51C674.82 274.875 674.896 275.28 674.896 275.724V276.024C674.896 276.615 674.765 277.134 674.503 277.582C674.246 278.03 673.886 278.379 673.424 278.629C672.965 278.876 672.432 279 671.823 279ZM671.093 272.743V279H669.798V272.743H671.093ZM681.422 277.974V279H677.84V277.974H681.422ZM678.248 272.743V279H676.954V272.743H678.248ZM680.96 275.251V276.277H677.84V275.251H680.96ZM681.412 272.743V273.774H677.84V272.743H681.412ZM687.203 276.916H688.502C688.47 277.342 688.345 277.718 688.126 278.044C687.912 278.37 687.611 278.626 687.224 278.812C686.837 278.995 686.37 279.086 685.822 279.086C685.396 279.086 685.013 279.016 684.673 278.876C684.336 278.737 684.048 278.538 683.808 278.28C683.572 278.019 683.389 277.704 683.26 277.335C683.135 276.963 683.072 276.545 683.072 276.083V275.665C683.072 275.203 683.137 274.787 683.266 274.418C683.395 274.046 683.581 273.729 683.824 273.468C684.068 273.203 684.358 273.002 684.694 272.866C685.035 272.727 685.416 272.657 685.838 272.657C686.393 272.657 686.861 272.752 687.24 272.941C687.62 273.128 687.915 273.387 688.126 273.72C688.338 274.053 688.465 274.435 688.508 274.864H687.213C687.192 274.632 687.133 274.427 687.036 274.252C686.939 274.073 686.794 273.933 686.601 273.833C686.408 273.733 686.153 273.683 685.838 273.683C685.595 273.683 685.382 273.726 685.199 273.812C685.017 273.894 684.863 274.019 684.737 274.188C684.616 274.356 684.522 274.563 684.458 274.811C684.397 275.054 684.367 275.337 684.367 275.659V276.083C684.367 276.399 684.394 276.68 684.447 276.927C684.505 277.17 684.592 277.376 684.71 277.544C684.829 277.713 684.979 277.842 685.162 277.931C685.348 278.017 685.568 278.06 685.822 278.06C686.127 278.06 686.375 278.019 686.569 277.937C686.762 277.851 686.911 277.722 687.015 277.55C687.118 277.378 687.181 277.167 687.203 276.916Z" fill="#949494"/>
<path d="M510 136C510 133.791 511.791 132 514 132C516.209 132 518 133.791 518 136V254H510V136Z" fill="#091F5B"/>
<path d="M518 202C518 199.791 519.791 198 522 198C524.209 198 526 199.791 526 202V254H518V202Z" fill="#CE2A96"/>
<rect x="626" y="26" width="63" height="28" rx="4" fill="white"/>
<path d="M634.96 44V43.125L637.667 40.3203C637.957 40.0156 638.195 39.7487 638.382 39.5195C638.572 39.2878 638.714 39.0677 638.808 38.8594C638.902 38.651 638.949 38.4297 638.949 38.1953C638.949 37.9297 638.886 37.7005 638.761 37.5078C638.636 37.3125 638.466 37.1628 638.25 37.0586C638.033 36.9518 637.79 36.8984 637.519 36.8984C637.233 36.8984 636.983 36.957 636.769 37.0742C636.556 37.1914 636.391 37.3568 636.277 37.5703C636.162 37.7839 636.105 38.0339 636.105 38.3203H634.953C634.953 37.8333 635.065 37.4076 635.289 37.043C635.513 36.6784 635.82 36.3958 636.21 36.1953C636.601 35.9922 637.045 35.8906 637.542 35.8906C638.045 35.8906 638.488 35.9909 638.871 36.1914C639.256 36.3893 639.557 36.6602 639.773 37.0039C639.989 37.3451 640.097 37.7305 640.097 38.1602C640.097 38.457 640.041 38.7474 639.929 39.0312C639.82 39.3151 639.628 39.6315 639.355 39.9805C639.082 40.3268 638.701 40.7474 638.214 41.2422L636.625 42.9062V42.9648H640.226V44H634.96ZM645.492 44.1328C644.875 44.1302 644.347 43.9674 643.91 43.6445C643.472 43.3216 643.138 42.8516 642.906 42.2344C642.674 41.6172 642.558 40.8737 642.558 40.0039C642.558 39.1367 642.674 38.3958 642.906 37.7812C643.14 37.1667 643.476 36.6979 643.914 36.375C644.354 36.0521 644.88 35.8906 645.492 35.8906C646.104 35.8906 646.628 36.0534 647.066 36.3789C647.503 36.7018 647.838 37.1706 648.07 37.7852C648.304 38.3971 648.421 39.1367 648.421 40.0039C648.421 40.8763 648.306 41.6211 648.074 42.2383C647.842 42.8529 647.507 43.3229 647.07 43.6484C646.632 43.9714 646.106 44.1328 645.492 44.1328ZM645.492 43.0898C646.033 43.0898 646.457 42.8255 646.761 42.2969C647.069 41.7682 647.222 41.0039 647.222 40.0039C647.222 39.3398 647.152 38.7786 647.011 38.3203C646.873 37.8594 646.674 37.5104 646.414 37.2734C646.156 37.0339 645.848 36.9141 645.492 36.9141C644.953 36.9141 644.529 37.1797 644.222 37.7109C643.915 38.2422 643.76 39.0065 643.757 40.0039C643.757 40.6706 643.826 41.2344 643.964 41.6953C644.105 42.1536 644.304 42.5013 644.562 42.7383C644.82 42.9727 645.13 43.0898 645.492 43.0898ZM650.807 44V43.125L653.514 40.3203C653.803 40.0156 654.042 39.7487 654.229 39.5195C654.419 39.2878 654.561 39.0677 654.655 38.8594C654.749 38.651 654.795 38.4297 654.795 38.1953C654.795 37.9297 654.733 37.7005 654.608 37.5078C654.483 37.3125 654.312 37.1628 654.096 37.0586C653.88 36.9518 653.637 36.8984 653.366 36.8984C653.079 36.8984 652.829 36.957 652.616 37.0742C652.402 37.1914 652.238 37.3568 652.124 37.5703C652.009 37.7839 651.952 38.0339 651.952 38.3203H650.799C650.799 37.8333 650.911 37.4076 651.135 37.043C651.359 36.6784 651.667 36.3958 652.057 36.1953C652.448 35.9922 652.892 35.8906 653.389 35.8906C653.892 35.8906 654.334 35.9909 654.717 36.1914C655.103 36.3893 655.403 36.6602 655.62 37.0039C655.836 37.3451 655.944 37.7305 655.944 38.1602C655.944 38.457 655.888 38.7474 655.776 39.0312C655.667 39.3151 655.475 39.6315 655.202 39.9805C654.928 40.3268 654.548 40.7474 654.061 41.2422L652.471 42.9062V42.9648H656.073V44H650.807ZM658.213 42.4375V41.4609L661.67 36H662.44V37.4375H661.952L659.479 41.3516V41.4141H664.217V42.4375H658.213ZM662.006 44V42.1406L662.014 41.6953V36H663.159V44H662.006Z" fill="black"/>
<path d="M675 41.1896C674.946 41.1896 674.897 41.1808 674.851 41.1631C674.805 41.1454 674.761 41.1148 674.718 41.0711L672.523 38.8771C672.476 38.8304 672.451 38.7731 672.448 38.7051C672.445 38.6371 672.47 38.5764 672.523 38.5231C672.576 38.4698 672.635 38.4431 672.7 38.4431C672.765 38.4431 672.824 38.4698 672.877 38.5231L675 40.6461L677.123 38.5231C677.17 38.4764 677.227 38.4514 677.296 38.4481C677.363 38.4448 677.424 38.4698 677.477 38.5231C677.53 38.5764 677.557 38.6354 677.557 38.7001C677.557 38.7648 677.53 38.8238 677.477 38.8771L675.283 41.0711C675.239 41.1148 675.195 41.1454 675.149 41.1631C675.104 41.1808 675.054 41.1896 675 41.1896Z" fill="black"/>
<rect x="492" y="33" width="59" height="14" rx="4" fill="white"/>
<rect x="500" y="38" width="5" height="5" rx="2.5" fill="#091F5B"/>
<path d="M509.784 43V37.1818H513.159V37.6591H510.316V39.8494H512.98V40.3267H510.316V42.5227H513.216V43H509.784ZM516.648 43.0994C516.385 43.0994 516.144 43.0483 515.926 42.946C515.709 42.8419 515.535 42.6922 515.407 42.4972C515.278 42.3002 515.213 42.0616 515.213 41.7812C515.213 41.5653 515.254 41.3835 515.336 41.2358C515.417 41.0881 515.533 40.9669 515.682 40.8722C515.832 40.7775 516.009 40.7027 516.213 40.6477C516.418 40.5928 516.643 40.5502 516.89 40.5199C517.134 40.4896 517.34 40.4631 517.509 40.4403C517.679 40.4176 517.809 40.3816 517.898 40.3324C517.987 40.2831 518.032 40.2036 518.032 40.0938V39.9915C518.032 39.6941 517.943 39.4602 517.765 39.2898C517.588 39.1174 517.335 39.0312 517.003 39.0312C516.689 39.0312 516.432 39.1004 516.233 39.2386C516.036 39.3769 515.898 39.5398 515.819 39.7273L515.338 39.554C515.437 39.3153 515.573 39.125 515.748 38.983C515.922 38.839 516.117 38.7358 516.333 38.6733C516.549 38.6089 516.767 38.5767 516.989 38.5767C517.156 38.5767 517.329 38.5985 517.509 38.642C517.691 38.6856 517.859 38.7614 518.015 38.8693C518.17 38.9754 518.296 39.1241 518.392 39.3153C518.489 39.5047 518.537 39.7453 518.537 40.0369V43H518.032V42.3097H518C517.94 42.4384 517.85 42.5634 517.73 42.6847C517.611 42.8059 517.462 42.9053 517.282 42.983C517.102 43.0606 516.891 43.0994 516.648 43.0994ZM516.716 42.6364C516.985 42.6364 517.218 42.5767 517.415 42.4574C517.612 42.3381 517.764 42.1799 517.87 41.983C517.978 41.7841 518.032 41.5653 518.032 41.3267V40.696C517.994 40.732 517.93 40.7642 517.841 40.7926C517.754 40.821 517.653 40.8466 517.537 40.8693C517.424 40.8902 517.31 40.9081 517.196 40.9233C517.083 40.9384 516.98 40.9517 516.89 40.9631C516.643 40.9934 516.433 41.0407 516.259 41.1051C516.085 41.1695 515.951 41.2585 515.858 41.3722C515.766 41.4839 515.719 41.6278 515.719 41.804C515.719 42.0691 515.814 42.2746 516.003 42.4205C516.193 42.5644 516.43 42.6364 516.716 42.6364ZM520.882 43V38.6364H521.374V39.3068H521.411C521.498 39.0871 521.65 38.91 521.865 38.7756C522.083 38.6392 522.329 38.571 522.604 38.571C522.646 38.571 522.692 38.572 522.743 38.5739C522.794 38.5758 522.837 38.5777 522.871 38.5795V39.0938C522.848 39.09 522.809 39.0843 522.752 39.0767C522.695 39.0691 522.633 39.0653 522.567 39.0653C522.34 39.0653 522.137 39.1136 521.959 39.2102C521.783 39.3049 521.644 39.4366 521.542 39.6051C521.439 39.7737 521.388 39.9659 521.388 40.1818V43H520.882ZM525.24 40.2727V43H524.734V38.6364H525.225V39.321H525.271C525.373 39.0975 525.532 38.9186 525.748 38.7841C525.966 38.6477 526.235 38.5795 526.555 38.5795C526.849 38.5795 527.106 38.6411 527.328 38.7642C527.551 38.8854 527.725 39.0644 527.848 39.3011C527.973 39.5379 528.035 39.8286 528.035 40.1733V43H527.529V40.2045C527.529 39.8466 527.429 39.5634 527.228 39.3551C527.029 39.1468 526.762 39.0426 526.427 39.0426C526.198 39.0426 525.994 39.0919 525.816 39.1903C525.638 39.2888 525.497 39.4309 525.393 39.6165C525.291 39.8002 525.24 40.0189 525.24 40.2727ZM530.373 43V38.6364H530.881V43H530.373ZM530.631 37.8864C530.527 37.8864 530.438 37.8513 530.364 37.7812C530.29 37.7093 530.253 37.6231 530.253 37.5227C530.253 37.4223 530.29 37.3371 530.364 37.267C530.438 37.1951 530.527 37.1591 530.631 37.1591C530.735 37.1591 530.824 37.1951 530.898 37.267C530.972 37.3371 531.009 37.4223 531.009 37.5227C531.009 37.6231 530.972 37.7093 530.898 37.7812C530.824 37.8513 530.735 37.8864 530.631 37.8864ZM533.724 40.2727V43H533.218V38.6364H533.71V39.321H533.755C533.858 39.0975 534.017 38.9186 534.233 38.7841C534.45 38.6477 534.719 38.5795 535.039 38.5795C535.333 38.5795 535.591 38.6411 535.812 38.7642C536.036 38.8854 536.209 39.0644 536.332 39.3011C536.457 39.5379 536.52 39.8286 536.52 40.1733V43H536.014V40.2045C536.014 39.8466 535.913 39.5634 535.713 39.3551C535.514 39.1468 535.247 39.0426 534.912 39.0426C534.682 39.0426 534.479 39.0919 534.301 39.1903C534.123 39.2888 533.982 39.4309 533.877 39.6165C533.775 39.8002 533.724 40.0189 533.724 40.2727ZM540.516 44.7273C540.219 44.7273 539.958 44.6884 539.735 44.6108C539.511 44.535 539.323 44.4309 539.169 44.2983C539.016 44.1657 538.897 44.017 538.811 43.8523L539.226 43.5795C539.289 43.6894 539.372 43.7973 539.476 43.9034C539.582 44.0095 539.72 44.0975 539.888 44.1676C540.059 44.2377 540.268 44.2727 540.516 44.2727C540.902 44.2727 541.214 44.1761 541.451 43.983C541.689 43.7898 541.809 43.4896 541.809 43.0824V42.0994H541.763C541.704 42.232 541.62 42.3646 541.51 42.4972C541.4 42.6278 541.257 42.7367 541.078 42.8239C540.902 42.911 540.684 42.9545 540.422 42.9545C540.074 42.9545 539.764 42.8684 539.493 42.696C539.224 42.5237 539.012 42.2775 538.857 41.9574C538.703 41.6354 538.627 41.2519 538.627 40.8068C538.627 40.3655 538.702 39.9773 538.851 39.642C539.003 39.3068 539.214 39.0455 539.485 38.858C539.756 38.6705 540.071 38.5767 540.431 38.5767C540.698 38.5767 540.919 38.6241 541.096 38.7188C541.272 38.8116 541.413 38.9271 541.519 39.0653C541.627 39.2036 541.711 39.3381 541.772 39.4688H541.823V38.6364H542.317V43.1136C542.317 43.483 542.239 43.7869 542.081 44.0256C541.924 44.2642 541.71 44.4403 541.439 44.554C541.168 44.6695 540.861 44.7273 540.516 44.7273ZM540.482 42.4915C540.762 42.4915 541.002 42.4242 541.201 42.2898C541.4 42.1534 541.552 41.9583 541.658 41.7045C541.764 41.4508 541.817 41.1487 541.817 40.7983C541.817 40.4574 541.765 40.1553 541.661 39.892C541.557 39.6269 541.405 39.4186 541.206 39.267C541.009 39.1136 540.768 39.0369 540.482 39.0369C540.19 39.0369 539.944 39.1155 539.743 39.2727C539.542 39.4299 539.391 39.642 539.289 39.9091C539.186 40.1742 539.135 40.4706 539.135 40.7983C539.135 41.1316 539.187 41.4261 539.292 41.6818C539.396 41.9356 539.548 42.1345 539.749 42.2784C539.95 42.4205 540.194 42.4915 540.482 42.4915Z" fill="black"/>
<rect x="555" y="33" width="63" height="14" rx="4" fill="white"/>
<rect x="563" y="38" width="5" height="5" rx="2.5" fill="#CE2A96"/>
<path d="M572.878 43V37.1818H576.253V37.6591H573.409V39.8494H576.074V40.3267H573.409V42.5227H576.31V43H572.878ZM578.836 38.6364L579.961 40.4972L581.086 38.6364H581.674L580.27 40.8182L581.674 43H581.086L579.961 41.1989L578.836 43H578.25L579.637 40.8182L578.25 38.6364H578.836ZM583.734 44.6364V38.6364H584.225V39.4688H584.285C584.346 39.3381 584.429 39.2045 584.535 39.0682C584.641 38.9299 584.781 38.8134 584.956 38.7188C585.132 38.6241 585.353 38.5767 585.62 38.5767C585.98 38.5767 586.295 38.6714 586.564 38.8608C586.834 39.0483 587.045 39.3116 587.194 39.6506C587.346 39.9877 587.422 40.3807 587.422 40.8295C587.422 41.2803 587.346 41.6752 587.194 42.0142C587.045 42.3532 586.834 42.6174 586.564 42.8068C586.295 42.9962 585.982 43.0909 585.626 43.0909C585.363 43.0909 585.142 43.0436 584.964 42.9489C584.788 42.8542 584.645 42.7377 584.535 42.5994C584.427 42.4593 584.344 42.3229 584.285 42.1903H584.24V44.6364H583.734ZM584.234 40.821C584.234 41.1733 584.286 41.4858 584.39 41.7585C584.496 42.0294 584.648 42.2424 584.845 42.3977C585.044 42.5511 585.284 42.6278 585.566 42.6278C585.856 42.6278 586.1 42.5483 586.299 42.3892C586.5 42.2282 586.653 42.0114 586.757 41.7386C586.863 41.4659 586.916 41.16 586.916 40.821C586.916 40.4858 586.864 40.1837 586.76 39.9148C586.657 39.6458 586.506 39.4328 586.305 39.2756C586.104 39.1165 585.858 39.0369 585.566 39.0369C585.282 39.0369 585.041 39.1136 584.842 39.267C584.643 39.4186 584.492 39.6288 584.387 39.8977C584.285 40.1648 584.234 40.4725 584.234 40.821ZM591.295 43.0909C590.888 43.0909 590.536 42.9962 590.238 42.8068C589.941 42.6155 589.711 42.3513 589.548 42.0142C589.387 41.6752 589.306 41.285 589.306 40.8438C589.306 40.4044 589.387 40.0142 589.548 39.6733C589.711 39.3305 589.935 39.0625 590.221 38.8693C590.509 38.6742 590.842 38.5767 591.218 38.5767C591.455 38.5767 591.683 38.6203 591.903 38.7074C592.123 38.7926 592.32 38.9242 592.494 39.1023C592.67 39.2784 592.809 39.5009 592.912 39.7699C593.014 40.0369 593.065 40.3532 593.065 40.7188V40.9688H589.656V40.5227H592.548C592.548 40.2424 592.491 39.9905 592.377 39.767C592.266 39.5417 592.109 39.3636 591.909 39.233C591.71 39.1023 591.48 39.0369 591.218 39.0369C590.942 39.0369 590.699 39.1108 590.488 39.2585C590.278 39.4062 590.113 39.6013 589.994 39.8438C589.877 40.0862 589.817 40.3513 589.815 40.6392V40.9062C589.815 41.2528 589.875 41.5559 589.994 41.8153C590.115 42.0729 590.287 42.2727 590.508 42.4148C590.73 42.5568 590.992 42.6278 591.295 42.6278C591.502 42.6278 591.682 42.5956 591.838 42.5312C591.995 42.4669 592.127 42.3807 592.233 42.2727C592.341 42.1629 592.422 42.0426 592.477 41.9119L592.957 42.0682C592.891 42.2519 592.782 42.4214 592.63 42.5767C592.481 42.732 592.293 42.857 592.068 42.9517C591.844 43.0445 591.587 43.0909 591.295 43.0909ZM595.685 40.2727V43H595.179V38.6364H595.671V39.321H595.716C595.819 39.0975 595.978 38.9186 596.194 38.7841C596.411 38.6477 596.68 38.5795 597 38.5795C597.294 38.5795 597.551 38.6411 597.773 38.7642C597.997 38.8854 598.17 39.0644 598.293 39.3011C598.418 39.5379 598.48 39.8286 598.48 40.1733V43H597.975V40.2045C597.975 39.8466 597.874 39.5634 597.674 39.3551C597.475 39.1468 597.208 39.0426 596.873 39.0426C596.643 39.0426 596.44 39.0919 596.262 39.1903C596.084 39.2888 595.943 39.4309 595.838 39.6165C595.736 39.8002 595.685 40.0189 595.685 40.2727ZM603.744 39.5938L603.281 39.7244C603.235 39.5937 603.171 39.4754 603.088 39.3693C603.004 39.2633 602.895 39.179 602.761 39.1165C602.628 39.054 602.464 39.0227 602.267 39.0227C601.971 39.0227 601.729 39.0928 601.539 39.233C601.35 39.3731 601.255 39.554 601.255 39.7756C601.255 39.9631 601.32 40.1155 601.449 40.233C601.579 40.3485 601.78 40.4403 602.051 40.5085L602.71 40.6705C603.075 40.7595 603.349 40.9006 603.531 41.0938C603.715 41.2869 603.806 41.5294 603.806 41.821C603.806 42.0672 603.738 42.286 603.602 42.4773C603.466 42.6686 603.275 42.8191 603.031 42.929C602.788 43.0369 602.507 43.0909 602.187 43.0909C601.761 43.0909 601.41 42.9953 601.133 42.804C600.857 42.6108 600.68 42.3324 600.602 41.9688L601.088 41.8494C601.15 42.1089 601.272 42.3049 601.454 42.4375C601.638 42.5701 601.879 42.6364 602.179 42.6364C602.514 42.6364 602.782 42.5616 602.983 42.4119C603.183 42.2604 603.284 42.071 603.284 41.8438C603.284 41.6676 603.225 41.5199 603.108 41.4006C602.99 41.2794 602.812 41.1903 602.574 41.1335L601.86 40.9631C601.482 40.8722 601.201 40.7282 601.02 40.5312C600.838 40.3343 600.747 40.09 600.747 39.7983C600.747 39.5578 600.812 39.3466 600.943 39.1648C601.074 38.9811 601.253 38.8371 601.483 38.733C601.712 38.6288 601.973 38.5767 602.267 38.5767C602.666 38.5767 602.985 38.6676 603.224 38.8494C603.465 39.0294 603.638 39.2775 603.744 39.5938ZM607.678 43.0909C607.271 43.0909 606.918 42.9962 606.621 42.8068C606.324 42.6155 606.094 42.3513 605.931 42.0142C605.77 41.6752 605.689 41.285 605.689 40.8438C605.689 40.4044 605.77 40.0142 605.931 39.6733C606.094 39.3305 606.318 39.0625 606.604 38.8693C606.892 38.6742 607.224 38.5767 607.601 38.5767C607.838 38.5767 608.066 38.6203 608.286 38.7074C608.506 38.7926 608.703 38.9242 608.877 39.1023C609.053 39.2784 609.192 39.5009 609.294 39.7699C609.397 40.0369 609.448 40.3532 609.448 40.7188V40.9688H606.039V40.5227H608.931C608.931 40.2424 608.874 39.9905 608.76 39.767C608.649 39.5417 608.492 39.3636 608.292 39.233C608.093 39.1023 607.863 39.0369 607.601 39.0369C607.325 39.0369 607.081 39.1108 606.871 39.2585C606.661 39.4062 606.496 39.6013 606.377 39.8438C606.259 40.0862 606.2 40.3513 606.198 40.6392V40.9062C606.198 41.2528 606.257 41.5559 606.377 41.8153C606.498 42.0729 606.669 42.2727 606.891 42.4148C607.113 42.5568 607.375 42.6278 607.678 42.6278C607.884 42.6278 608.065 42.5956 608.221 42.5312C608.378 42.4669 608.509 42.3807 608.615 42.2727C608.723 42.1629 608.805 42.0426 608.86 41.9119L609.34 42.0682C609.274 42.2519 609.165 42.4214 609.013 42.5767C608.864 42.732 608.676 42.857 608.451 42.9517C608.227 43.0445 607.97 43.0909 607.678 43.0909Z" fill="black"/>
</svg>
